<?xml version="1.0" encoding="UTF-8"?><svg viewBox="0 0 256 256" xmlns="http://www.w3.org/2000/svg"><path d="m77.485 74.428-18.985 31.641h34.805l-15.82-31.641z" fill="#001E8B"/><path d="m58.691 109.81 65.906 98.858-29.657-98.858h-36.248z" fill="#001E8B"/><path d="m122.36 72.414h-41.696l16.037 32.074 25.659-32.074z" fill="#001E8B"/><path d="m155.7 106.07-29.372-32.635-26.108 32.635h55.48z" fill="#001E8B"/><path d="m175.57 72.414h-45.128l29.011 32.234 16.117-32.234z" fill="#001E8B"/><path d="m98.844 109.81 31.035 103.45 27.587-103.45h-58.622zm27.401 18.696h-5.609v5.609c0 1.033-0.837 1.87-1.87 1.87-1.032 0-1.87-0.837-1.87-1.87v-5.609h-5.609c-1.032 0-1.87-0.837-1.87-1.87 0-1.032 0.838-1.869 1.87-1.869h5.609v-5.61c0-1.032 0.838-1.87 1.87-1.87 1.033 0 1.87 0.838 1.87 1.87v5.61h5.609c1.033 0 1.87 0.837 1.87 1.869 0 1.033-0.837 1.87-1.87 1.87z" fill="#001E8B"/><path d="m197.73 106.07-18.985-31.641-15.82 31.641h34.805z" fill="#001E8B"/><path d="m134.94 208.81 62.698-98.997h-36.3l-26.398 98.997z" fill="#001E8B"/><path d="m92.964 188.34h-5.6092v-5.61c0-1.032-0.8371-1.87-1.8698-1.87-1.0323 0-1.8699 0.838-1.8699 1.87v5.61h-5.6088c-1.0323 0-1.8699 0.837-1.8699 1.869 0 1.033 0.8372 1.87 1.8699 1.87h5.6088v5.609c0 1.033 0.8376 1.87 1.8699 1.87 1.0327 0 1.8698-0.837 1.8698-1.87v-5.609h5.6092c1.0327 0 1.8699-0.837 1.8699-1.87 0-1.032-0.8372-1.869-1.8699-1.869z" fill="#001E8B"/><path d="m152.79 53.718h5.61v5.6092c0 1.0327 0.837 1.8699 1.869 1.8699 1.033 0 1.87-0.8372 1.87-1.8699v-5.6092h5.609c1.033 0 1.87-0.8372 1.87-1.8699 0-1.0323-0.837-1.8698-1.87-1.8698h-5.609v-5.6084c0-1.0323-0.837-1.8699-1.87-1.8699-1.032 0-1.869 0.8372-1.869 1.8699v5.6088h-5.61c-1.032 0-1.869 0.8375-1.869 1.8698 0 1.0327 0.837 1.8695 1.869 1.8695z" fill="#001E8B"/><path d="m193.93 162.16h-5.609v-5.609c0-1.033-0.837-1.87-1.869-1.87-1.033 0-1.87 0.837-1.87 1.87v5.609h-5.61c-1.032 0-1.869 0.837-1.869 1.87 0 1.032 0.837 1.87 1.869 1.87h5.61v5.609c0 1.032 0.837 1.87 1.87 1.87 1.032 0 1.869-0.838 1.869-1.87v-5.609h5.609c1.033 0 1.87-0.838 1.87-1.87 0-1.033-0.837-1.87-1.87-1.87z" fill="#001E8B"/></svg>
