<?xml version="1.0" encoding="UTF-8"?><svg viewBox="0 0 256 256" xmlns="http://www.w3.org/2000/svg"><path d="m52.989 108.74c-0.6275 0.614-1.6125 0.601-2.227-0.012-0.601-0.615-0.5885-1.613 0.0255-2.214l5.388-5.299h-41.614c-0.857 0-1.562-0.703-1.562-1.5729 0-0.8705 0.7045-1.574 1.562-1.574h41.614l-5.388-5.2845c-0.614-0.6015-0.6265-1.5995-0.0255-2.2145 0.6145-0.627 1.5995-0.627 2.227-0.0255l8.049 7.908c0.3455 0.294 0.55 0.7165 0.55 1.1905 0 0.4859-0.2045 0.9079-0.55 1.2019l-8.0495 7.896z" fill="#001E8B"/><path d="m198.16 176.69c0.615 0.601 0.627 1.599 0.013 2.213-0.602 0.615-1.599 0.628-2.214 0.027l-8.062-7.908c-0.333-0.295-0.55-0.717-0.55-1.202 0-0.474 0.217-0.896 0.55-1.191l8.062-7.908c0.615-0.601 1.612-0.589 2.214 0.027 0.614 0.614 0.601 1.612-0.013 2.213l-5.4 5.285h41.614c0.87 0 1.574 0.717 1.574 1.574 0 0.869-0.704 1.573-1.574 1.573h-41.614l5.4 5.297z" fill="#001E8B"/><path d="m42.547 199.39c-0.8705 0-1.574-0.704-1.574-1.561 0-0.87 0.7035-1.574 1.574-1.574h138.59c0.871 0 1.574 0.704 1.574 1.574 0 0.857-0.703 1.561-1.574 1.561h-138.59z" fill="#001E8B"/><path d="m123.72 207.82c-0.87 0-1.574-0.704-1.574-1.573 0-0.858 0.704-1.562 1.574-1.562h95.906c0.857 0 1.573 0.704 1.573 1.562 0 0.869-0.717 1.573-1.573 1.573h-95.906z" fill="#001E8B"/><path d="m229.43 207.82c-0.869 0-1.573-0.704-1.573-1.573 0-0.858 0.704-1.562 1.573-1.562h11.99c0.87 0 1.574 0.704 1.574 1.562 0 0.869-0.704 1.573-1.574 1.573h-11.99z" fill="#001E8B"/><path d="m37.097 207.57c-0.8705 0-1.574-0.703-1.574-1.573 0-0.858 0.7035-1.561 1.574-1.561h45.439c0.8705 0 1.574 0.703 1.574 1.561 0 0.87-0.7035 1.573-1.574 1.573h-45.439z" fill="#001E8B"/><path d="m218.37 184.04h-75.5l-12.422-12.426c15.443-0.294 30.197-3.967 43.761-10.442 14.306-6.833 27.307-16.776 38.415-29.124-11.108-12.349-24.109-22.291-38.415-29.125-13.488-6.4362-28.139-10.109-43.491-10.428l12.166-12.17h75.499c0.857 0 1.574-0.703 1.574-1.573 0-0.8575-0.717-1.574-1.574-1.574h-76.151c-0.436 0-0.832 0.179-1.114 0.4605l-12.614 12.617-12.604-12.617c-0.282-0.2815-0.678-0.4605-1.114-0.4605h-76.15c-0.857 0-1.574 0.7165-1.574 1.574 0 0.8695 0.717 1.573 1.574 1.573h75.498l12.157 12.157c-15.342 0.332-30.02 4.005-43.508 10.441-14.306 6.834-27.308 16.776-38.414 29.125 11.107 12.348 24.109 22.291 38.414 29.124 13.564 6.475 28.319 10.148 43.764 10.442l-12.425 12.426h-75.486c-0.8705 0-1.574 0.704-1.574 1.573 0 0.871 0.7035 1.574 1.574 1.574h76.138c0.435 0 0.832-0.179 1.113-0.461l12.617-12.616 12.601 12.616c0.282 0.282 0.678 0.461 1.114 0.461h76.152c0.868 0 1.573-0.703 1.573-1.574 0-0.869-0.705-1.573-1.574-1.573zm-110.53-31.338c-5.285-5.284-8.5479-12.592-8.5479-20.654s3.2629-15.368 8.5479-20.654c5.285-5.284 12.592-8.56 20.666-8.56 8.059 0 15.365 3.276 20.65 8.56 5.286 5.285 8.549 12.592 8.549 20.654s-3.262 15.369-8.549 20.654c-5.284 5.284-12.591 8.561-20.65 8.561-8.074 0-15.381-3.276-20.666-8.561z" fill="#001E8B"/><path d="m146.92 113.62c-4.721-4.722-11.235-7.639-18.424-7.639-7.204 0-13.718 2.917-18.439 7.639-4.709 4.709-7.626 11.236-7.626 18.427s2.917 13.718 7.626 18.426c4.722 4.723 11.235 7.641 18.439 7.641 7.189 0 13.702-2.918 18.424-7.641 4.709-4.708 7.64-11.235 7.64-18.426 0-7.192-2.931-13.718-7.64-18.427zm-6.872 29.982c-2.956 2.955-7.051 4.785-11.552 4.785-4.517 0-8.599-1.83-11.555-4.785-2.956-2.969-4.799-7.052-4.799-11.555 0-4.517 1.843-8.599 4.785-11.555 2.97-2.956 7.052-4.786 11.569-4.786 4.501 0 8.583 1.83 11.539 4.786 2.969 2.969 4.798 7.051 4.798 11.555 1e-3 4.517-1.828 8.599-4.785 11.555z" fill="#001E8B"/></svg>
