<?xml version="1.0" encoding="UTF-8"?><svg viewBox="0 0 157 38" xmlns="http://www.w3.org/2000/svg"><path d="m22.496 17.058c0 8.1622-3.8029 12.242-11.409 12.239-7.3654 0-11.048-3.9854-11.048-11.956v-15.689h6.1236v15.767c0 4.398 1.7178 6.597 5.1535 6.597 3.3631 0 5.0447-2.1227 5.0447-6.3681v-15.996h6.1236l0.0116 15.406z" fill="#00176B"/><path d="m45.591 28.824h-5.9683v-10.78c0-3.0062-1.0736-4.5093-3.2209-4.5093-0.4896-0.0105-0.9751 0.0914-1.4191 0.298-0.444 0.2065-0.8347 0.5121-1.1421 0.8934-0.688 0.8566-1.0435 1.9328-1.0012 3.0307v11.068h-5.9877v-19.403h5.9877v3.0696h0.0737c1.4281-2.3646 3.5068-3.5456 6.2362-3.543 4.2919 0 6.4392 2.6646 6.4417 7.994v11.882z" fill="#00176B"/><path d="m52.389 6.3517c-0.9138 0.03664-1.8055-0.2866-2.4836-0.90029-0.3098-0.27736-0.5564-0.61805-0.7231-0.999s-0.2496-0.79328-0.2431-1.2091c-0.0125-0.41493 0.0678-0.82742 0.2349-1.2074 0.1672-0.37997 0.417-0.71786 0.7313-0.98903 0.7112-0.55319 1.5865-0.85354 2.4875-0.85354s1.7763 0.30035 2.4874 0.85354c0.3114 0.27298 0.5584 0.61149 0.7235 0.99123 0.165 0.37975 0.244 0.79133 0.2312 1.2052 0.0132 0.41961-0.0654 0.83704-0.2303 1.2231s-0.4121 0.73148-0.7244 1.0121c-0.6877 0.59971-1.5796 0.91229-2.4913 0.87314zm2.9531 22.473h-5.9877v-19.403h5.9877v19.403z" fill="#00176B"/><path d="m78.4 37.749h-5.9878v-11.595h-0.0776c-1.3505 2.0955-3.3399 3.1432-5.9684 3.1432-2.437 0-4.398-0.8498-5.8829-2.5495-1.485-1.6997-2.2301-4.0837-2.2353-7.1519 0-3.2313 0.815-5.8183 2.4448-7.7612 0.7717-0.9359 1.7477-1.6825 2.853-2.1823 1.1053-0.49983 2.3104-0.73962 3.5228-0.70096 2.3749 0 4.1303 0.90547 5.266 2.7164h0.0776v-2.2546h5.9878v28.336zm-5.8753-18.192v-1.5522c0.0373-1.1596-0.3537-2.2923-1.0982-3.1821-0.3418-0.4156-0.7739-0.7476-1.2635-0.9709s-1.0236-0.3318-1.5615-0.3174c-0.6088-0.0221-1.2135 0.1084-1.7591 0.3794-0.5455 0.2711-1.0147 0.6743-1.3648 1.1728-0.7606 1.0348-1.1396 2.4784-1.137 4.3308 0 1.6557 0.3686 2.9492 1.1059 3.8805 0.336 0.4465 0.7734 0.8064 1.2762 1.05s1.0564 0.3639 1.6149 0.3509c0.583 0.0186 1.1621-0.1003 1.6906-0.3471 0.5286-0.2467 0.9916-0.6143 1.3518-1.0732 0.7657-0.9391 1.1473-2.1796 1.1447-3.7215z" fill="#00176B"/><path d="m113.28 28.824h-5.969v-11.067c0-2.8122-1.034-4.2195-3.104-4.2221-0.475-0.0052-0.944 0.1081-1.364 0.3296-0.42 0.2216-0.778 0.5444-1.042 0.9393-0.644 0.9259-0.969 2.0358-0.928 3.1627v10.866h-5.9912v-11.188c0-2.7397-1.0167-4.1095-3.0501-4.1095-0.4771-0.0136-0.9503 0.0897-1.3784 0.3007s-0.7982 0.5234-1.078 0.91c-0.6132 0.8072-0.9158 1.9093-0.9158 3.2985v10.78h-5.9878v-19.403h5.9878v3.023h0.0582c0.6586-1.0704 1.5812-1.9538 2.6793-2.5653 1.0981-0.61155 2.3348-0.9308 3.5917-0.92717 2.7423 0 4.6179 1.2069 5.6273 3.6206 1.477-2.4137 3.65-3.6206 6.519-3.6206 4.219 0 6.329 2.6026 6.329 7.8077l0.016 12.065z" fill="#52ECD9"/><path d="m134.48 20.826h-12.659c0.202 2.8173 1.977 4.226 5.324 4.226 1.982 0.0419 3.934-0.4831 5.627-1.5135v4.3191c-1.793 0.9572-4.121 1.4371-6.985 1.4397-3.135 0-5.567-0.8679-7.295-2.6038-1.729-1.736-2.595-4.1575-2.6-7.2645 0-3.2209 0.935-5.773 2.805-7.6564 0.895-0.9179 1.969-1.642 3.155-2.1273 1.186-0.48533 2.46-0.72153 3.741-0.69392 2.828 0 5.016 0.83949 6.566 2.5185 1.55 1.679 2.326 3.9595 2.328 6.8415l-7e-3 2.5146zm-5.553-3.6749c0-2.7785-1.125-4.1678-3.373-4.1678-0.478 0.0022-0.949 0.1106-1.38 0.3173s-0.81 0.5066-1.111 0.8779c-0.721 0.8367-1.168 1.8741-1.281 2.9726h7.145z" fill="#52ECD9"/><path d="m156.04 28.824h-5.972v-2.6698h-0.074c-1.366 2.0955-3.369 3.1433-6.007 3.1433-2.424 0-4.376-0.8563-5.856-2.569-1.48-1.7126-2.219-4.1031-2.216-7.1713 0-3.2054 0.815-5.7756 2.445-7.7107 0.775-0.9405 1.755-1.6908 2.865-2.1933 1.11-0.50253 2.32-0.74389 3.538-0.70554 2.504 0 4.248 0.89643 5.231 2.6892h0.074v-11.537h5.972v28.724zm-5.872-9.4375v-1.4592c0.039-1.148-0.353-2.2691-1.098-3.1432-0.386-0.42-0.861-0.7496-1.389-0.9652-0.528-0.2157-1.098-0.3122-1.668-0.2825-0.57 0.0296-1.126 0.1846-1.629 0.454-0.504 0.2693-0.941 0.6463-1.282 1.1041-0.75 1.0348-1.124 2.4655-1.122 4.292 0 1.7074 0.361 3.0216 1.083 3.9426 0.365 0.4388 0.824 0.7905 1.342 1.0294 0.519 0.239 1.084 0.3591 1.655 0.3517 0.571-0.0075 1.133-0.1423 1.645-0.3946 0.512-0.2524 0.961-0.6159 1.315-1.0641 0.776-0.9701 1.164-2.2585 1.164-3.865h-0.016z" fill="#52ECD9"/></svg>
