<?xml version="1.0" encoding="UTF-8"?><svg fill="none" viewBox="0 0 256 256" xmlns="http://www.w3.org/2000/svg"><path d="m203.45 61.647-9.26 0.2773 5.337-5.6057c0.653-0.686 0.626-1.7708-0.06-2.4235-0.686-0.6535-1.771-0.6261-2.423 0.0596l-5.284 5.5508-0.055-8.3026c-7e-3 -0.9429-0.773-1.7028-1.715-1.7028h-0.011c-0.947 0.0062-1.71 0.7786-1.703 1.7255l0.079 11.857-14.733 15.476c-13.082-11.743-30.394-18.902-49.357-18.902-40.673 0-73.763 32.931-73.763 73.408 0 20.674 8.6333 39.377 22.498 52.732l-17.658 17.578c-0.671 0.668-0.6736 1.753-0.0055 2.424 0.3352 0.336 0.775 0.505 1.2151 0.505 0.4373 0 0.8749-0.166 1.2093-0.499l17.768-17.687c0.1588 0.139 0.3143 0.282 0.4746 0.42 0.0208 0.019 0.0443 0.033 0.0644 0.053 0.0018 2e-3 0.0029 5e-3 0.0051 7e-3 12.936 11.134 29.787 17.878 48.192 17.878 18.673 0 35.745-6.945 48.753-18.37l17.783 17.699c0.335 0.333 0.772 0.499 1.21 0.499 0.44 0 0.88-0.169 1.215-0.505 0.668-0.671 0.665-1.756-6e-3 -2.424l-17.675-17.593c13.857-13.354 22.486-32.05 22.486-52.717 0-20.379-8.391-38.843-21.912-52.157l14.71-15.452 12.723-0.3812c0.946-0.0286 1.69-0.8189 1.662-1.765-0.027-0.9466-0.816-1.6842-1.764-1.6622zm-20.329 71.245c0 32.305-26.403 58.587-58.856 58.587-32.453 0-58.856-26.282-58.856-58.587s26.403-58.587 58.856-58.587c15.042 0 28.782 5.6491 39.198 14.925l-2.364 2.4839c-9.8-8.69-22.707-13.98-36.834-13.98-30.563 0-55.427 24.744-55.427 55.158 0 30.415 24.864 55.159 55.427 55.159 30.563 0 55.427-24.744 55.427-55.159 0-15.128-6.153-28.852-16.098-38.827l-9.99 10.494c7.149 7.335 11.558 17.33 11.558 28.333 0 22.449-18.346 40.713-40.897 40.713-22.549 0-40.895-18.264-40.895-40.713 0-22.448 18.345-40.712 40.895-40.712 10.265 0 19.658 3.7851 26.846 10.025l-2.365 2.485c-6.571-5.6557-15.131-9.081-24.481-9.081-20.659 0-37.466 16.725-37.466 37.284 0 20.558 16.808 37.284 37.466 37.284 20.66 0 37.469-16.726 37.469-37.284 0-10.028-4.001-19.142-10.495-25.85l-0.244 0.257 24.197-25.418-9.234 9.7002c10.601 10.6 17.163 25.206 17.163 41.31zm-36.265 0c0 12.402-10.134 22.493-22.591 22.493-12.456 0-22.591-10.091-22.591-22.493s10.135-22.493 22.591-22.493c5.394 0 10.351 1.895 14.24 5.048l-2.373 2.493c-3.267-2.571-7.388-4.112-11.867-4.112-10.566 0-19.162 8.552-19.162 19.064s8.596 19.064 19.162 19.064 19.162-8.552 19.162-19.064c0-4.827-1.816-9.238-4.8-12.601l2.373-2.492c3.636 3.994 5.856 9.29 5.856 15.093z" fill="#001E8B"/></svg>
